<?xml version="1.0" encoding="UTF-8"?>
<svg version="1.1" xmlns="http://www.w3.org/2000/svg" width="606" height="306">
<path d="M0 0 C199.98 0 399.96 0 606 0 C606 100.98 606 201.96 606 306 C406.02 306 206.04 306 0 306 C0 205.02 0 104.04 0 0 Z " fill="#FEFEFE" transform="translate(0,0)"/>
<path d="M0 0 C12.54 0 25.08 0 38 0 C45.95350639 8.16280919 45.95350639 8.16280919 47.13671875 12.02734375 C49.02155083 17.35358858 51.81787149 21.69263715 54.9375 26.375 C55.95128474 27.97361039 56.96039183 29.57519661 57.96484375 31.1796875 C60.97167888 35.95621569 63.98523919 40.72847147 67 45.5 C68.00003062 47.08331399 69.00003061 48.66664733 70 50.25 C70.495 51.03375 70.99 51.8175 71.5 52.625 C85.75 75.1875 85.75 75.1875 100 97.75 C100.49588623 98.53511963 100.99177246 99.32023926 101.50268555 100.12915039 C102.49385642 101.69857161 103.48490636 103.26806921 104.47583008 104.83764648 C107.10988395 109.00949808 109.74656259 113.17966336 112.38671875 117.34765625 C112.93908203 118.22035156 113.49144531 119.09304687 114.06054688 119.9921875 C115.12488471 121.6736624 116.18995931 123.35467122 117.25585938 125.03515625 C117.73216797 125.78796875 118.20847656 126.54078125 118.69921875 127.31640625 C119.12033936 127.98099854 119.54145996 128.64559082 119.9753418 129.33032227 C121 131 121 131 122 133 C122.33 89.11 122.66 45.22 123 0 C135.54 0 148.08 0 161 0 C161 64.35 161 128.7 161 195 C148.13 195 135.26 195 122 195 C112.51202347 184.39579093 112.51202347 184.39579093 110.6953125 179.41796875 C107.98028097 172.68169437 104.33240538 166.87999864 100.375 160.8125 C99.10755308 158.79052811 97.84445642 156.76582216 96.5859375 154.73828125 C93.4083501 149.6475531 90.20976947 144.57048183 87 139.5 C82.47408254 132.34941825 77.98117191 125.17870272 73.5 118 C68.99351877 110.7825664 64.48085895 103.56928886 59.9375 96.375 C59.23101318 95.25629517 59.23101318 95.25629517 58.51025391 94.11499023 C55.75645288 89.760781 52.98946451 85.41519146 50.21484375 81.07421875 C49.57619385 80.07406738 48.93754395 79.07391602 48.27954102 78.04345703 C47.03573334 76.09666922 45.79020316 74.15098056 44.54272461 72.20654297 C43.97948486 71.32498535 43.41624512 70.44342773 42.8359375 69.53515625 C42.33626465 68.755354 41.8365918 67.97555176 41.32177734 67.17211914 C40.10722488 65.17620609 39.04487383 63.08974766 38 61 C37.67 105.22 37.34 149.44 37 195 C24.79 195 12.58 195 0 195 C0 130.65 0 66.3 0 0 Z " fill="#0151A3" transform="translate(55,55)"/>
<path d="M0 0 C12.54 0 25.08 0 38 0 C38 26.73 38 53.46 38 81 C66.38 81 94.76 81 124 81 C124 54.27 124 27.54 124 0 C136.54 0 149.08 0 162 0 C162 64.35 162 128.7 162 195 C149.46 195 136.92 195 124 195 C124 167.61 124 140.22 124 112 C95.62 112 67.24 112 38 112 C38 139.39 38 166.78 38 195 C25.46 195 12.92 195 0 195 C0 130.65 0 66.3 0 0 Z " fill="#0252A4" transform="translate(242,55)"/>
<path d="M0 0 C8.6434815 7.71314432 13.71684992 16.17958659 17.12304688 27.14257812 C16.58526611 27.2730957 16.04748535 27.40361328 15.4934082 27.53808594 C5.72544855 29.91832917 -3.97586691 32.33284186 -13.54101562 35.44335938 C-15.87695312 36.14257812 -15.87695312 36.14257812 -17.87695312 36.14257812 C-18.39257812 34.94632813 -18.90820312 33.75007813 -19.43945312 32.51757812 C-23.11142108 25.2251786 -29.43599391 21.13430399 -36.87695312 18.14257812 C-41.42046236 16.82738349 -45.8646202 16.88172464 -50.56445312 16.83007812 C-51.42490234 16.80107422 -52.28535156 16.77207031 -53.171875 16.7421875 C-62.30577876 16.65270691 -69.37102414 19.79155221 -75.87695312 26.14257812 C-79.98783658 31.79993678 -79.49658185 37.40305475 -78.87695312 44.14257812 C-76.68744403 50.71110542 -72.3455707 53.46242262 -66.43945312 56.58007812 C-58.04280562 60.63534788 -49.24490866 63.54285005 -40.25195312 65.95507812 C-19.96594989 71.60405535 2.79116978 80.24504342 14.68945312 98.59179688 C22.48704017 112.46597765 22.98598769 127.97469186 18.75683594 143.20898438 C13.88461935 158.07337397 4.32465172 168.1866302 -9.39257812 175.41992188 C-31.61455962 186.40634995 -58.75509256 185.91642673 -82.01367188 178.2434082 C-96.75625724 173.02558602 -109.04129033 164.01994384 -116.25195312 149.89257812 C-117.15369287 147.98834559 -118.03075195 146.0721324 -118.87695312 144.14257812 C-119.26109375 143.28148437 -119.64523437 142.42039063 -120.04101562 141.53320312 C-120.87695312 139.14257812 -120.87695312 139.14257812 -120.87695312 135.14257812 C-116.37600418 133.85583222 -111.87363583 132.57422563 -107.36987305 131.29736328 C-105.83789595 130.86225128 -104.3063165 130.42573666 -102.77514648 129.98779297 C-100.57443589 129.35861088 -98.37234536 128.73448393 -96.16992188 128.11132812 C-95.14320625 127.8160321 -95.14320625 127.8160321 -94.0957489 127.51477051 C-91.25108675 126.71442621 -88.84916237 126.14257812 -85.87695312 126.14257812 C-85.57402344 126.95082031 -85.27109375 127.7590625 -84.95898438 128.59179688 C-81.26240117 138.02092757 -76.98871709 143.59451069 -67.87695312 148.14257812 C-57.26215513 152.41916608 -44.76697462 152.90133992 -33.95507812 149.05273438 C-27.58232168 146.26165871 -22.79992061 142.12921804 -19.75585938 135.81835938 C-17.78842639 129.82861896 -18.29675016 123.35460193 -19.87695312 117.33007812 C-24.18998572 110.45618243 -29.6696451 106.97600275 -37.05273438 103.79492188 C-37.74919067 103.4928331 -38.44564697 103.19074432 -39.16320801 102.87950134 C-47.95895644 99.15047814 -57.0582007 96.33775485 -66.16796875 93.48852539 C-84.06270329 87.86299238 -103.61691642 80.95837854 -113.87695312 64.14257812 C-120.35675462 49.98155298 -120.4426704 34.94239374 -115.87695312 20.14257812 C-110.12090559 6.31730507 -99.57210883 -3.67321841 -85.97021484 -9.70263672 C-58.98437532 -20.44591264 -22.99115892 -19.35065873 0 0 Z " fill="#0251A3" transform="translate(543.876953125,68.857421875)"/>
</svg>
