<?xml version="1.0" encoding="UTF-8"?>
<svg version="1.1" xmlns="http://www.w3.org/2000/svg" width="739" height="332">
<path d="M0 0 C243.87 0 487.74 0 739 0 C739 109.56 739 219.12 739 332 C495.13 332 251.26 332 0 332 C0 222.44 0 112.88 0 0 Z " fill="#FEFEFD" transform="translate(0,0)"/>
<path d="M0 0 C4.8117724 1.2029431 6.42599077 2.66967322 10 6 C10 6.66 10 7.32 10 8 C10.53625 8.226875 11.0725 8.45375 11.625 8.6875 C15.74700263 10.96544882 19.46706157 13.40118471 21 18 C22.66047001 19.64477675 22.66047001 19.64477675 24.6875 21.25 C27.44583274 23.57565309 29.85325656 25.88548223 32.125 28.6875 C34.03059342 31.00913942 35.36161802 32.23851402 37.9375 33.9375 C40.6468779 35.76218308 42.14682246 37.18646923 44.20492554 39.63632202 C47.88322251 43.91464126 51.78054567 47.90830672 55.78369141 51.88134766 C56.52770706 52.62390305 57.27172272 53.36645844 58.0382843 54.1315155 C59.64019382 55.72964452 61.24325663 57.32661819 62.84737015 58.92253494 C65.38888282 61.45119408 67.92717965 63.98304265 70.46469116 66.51571655 C75.84865308 71.88829731 81.23653855 77.25693258 86.625 82.625 C92.87921759 88.85558056 99.13179642 95.08778739 105.38016891 101.32423019 C107.8758008 103.81339987 110.3744347 106.29952885 112.87319946 108.78555298 C114.40731383 110.31603381 115.94128741 111.84665579 117.47509766 113.37744141 C118.16613083 114.06330826 118.857164 114.74917511 119.56913757 115.45582581 C123.26903243 119.15531606 126.71233274 122.92950307 130 127 C131.74021353 128.95774023 132.96365667 129.98133721 135.3125 131.1875 C137.88301555 132.92110351 138.82235246 133.98936234 140.53367615 136.46380615 C144.55802938 141.93939507 149.33988218 146.61240613 154.14868164 151.39160156 C155.16649313 152.41048808 156.183871 153.42980792 157.20085144 154.44952393 C159.94412733 157.1976144 162.69355857 159.93946726 165.44433141 162.68005085 C168.33073451 165.55762111 171.21181471 168.44051208 174.09361267 171.32269287 C178.92952822 176.15767437 183.76928635 180.98878175 188.61157227 185.81738281 C194.20331128 191.39337687 199.7897867 196.97460008 205.37329203 202.55883813 C211.33154102 208.5177633 217.29359275 214.47287255 223.25676799 220.42686749 C224.96982448 222.13779675 226.68217298 223.84943187 228.39436531 225.56122589 C231.08671628 228.25256991 233.7816121 230.94134036 236.47847176 233.6281662 C237.4657339 234.61251647 238.45216234 235.59770374 239.43767929 236.58380127 C240.78642603 237.93304171 242.13856818 239.27888541 243.49085999 240.62457275 C244.24538987 241.3774268 244.99991976 242.13028084 245.77731419 242.90594864 C248.08665605 245.08164096 250.51295382 247.03211737 253 249 C254.2657149 250.29868944 255.49787868 251.63126716 256.6875 253 C257.26886719 253.66 257.85023438 254.32 258.44921875 255 C260 257 260 257 262 261 C175.54 261 89.08 261 0 261 C0 174.87 0 88.74 0 0 Z " fill="#FE3100" transform="translate(29,35)"/>
<path d="M0 0 C19.47 0 38.94 0 59 0 C60.73141493 1.73141493 60.11977579 3.95750044 60.12442017 6.26478577 C60.11902725 7.39550758 60.11902725 7.39550758 60.11352539 8.54907227 C60.11367142 9.33925751 60.11381744 10.12944275 60.1139679 10.943573 C60.11326857 13.56787822 60.10547527 16.19211336 60.09765625 18.81640625 C60.09579214 20.63101665 60.0943682 22.44562756 60.09336853 24.26023865 C60.08954279 29.0459023 60.07971204 33.8315358 60.06866455 38.6171875 C60.0566573 44.35403571 60.05204846 50.09089399 60.04621124 55.82775116 C60.03650031 64.5518551 60.01734415 73.27589284 60 82 C82.77 82 105.54 82 129 82 C129 54.94 129 27.88 129 0 C148.8 0 168.6 0 189 0 C189 73.26 189 146.52 189 222 C169.53 222 150.06 222 130 222 C129.67 192.3 129.34 162.6 129 132 C94.35 131.505 94.35 131.505 59 131 C59 161.36 59 191.72 59 223 C39.53 223 20.06 223 0 223 C0 149.41 0 75.82 0 0 Z " fill="#353434" transform="translate(332,53)"/>
<path d="M0 0 C3.62368024 0.00571301 7.24728724 0.00230805 10.870965 -0.0034523 C24.0445049 -0.02111034 37.18474224 -0.02916498 50.33154297 0.91210938 C55.00787196 1.21930595 59.6581867 1.20733685 64.34155273 1.13037109 C65.99122343 1.10465526 67.64097626 1.08369647 69.29077148 1.06787109 C70.33817505 1.05046875 70.33817505 1.05046875 71.40673828 1.03271484 C74.20686873 1.15439352 76.89442878 1.65373247 79.65405273 2.13037109 C80.60746433 32.01537282 80.79165148 61.87623491 80.75533295 91.77484131 C80.74951544 97.36210171 80.74936334 102.94935763 80.74865723 108.53662109 C80.74346918 124.73454046 80.72950831 140.93245607 80.71655273 157.13037109 C80.69592773 193.43037109 80.67530273 229.73037109 80.65405273 267.13037109 C-6.79594727 267.13037109 -94.24594727 267.13037109 -184.34594727 267.13037109 C-184.34594727 179.68037109 -184.34594727 92.23037109 -184.34594727 2.13037109 C-183.35594727 3.12037109 -182.36594727 4.11037109 -181.34594727 5.13037109 C-182.00594727 5.13037109 -182.66594727 5.13037109 -183.34594727 5.13037109 C-183.34594727 91.26037109 -183.34594727 177.39037109 -183.34594727 266.13037109 C-96.88594727 266.13037109 -10.42594727 266.13037109 78.65405273 266.13037109 C76.34405273 263.49037109 74.03405273 260.85037109 71.65405273 258.13037109 C70.44749023 256.61443359 70.44749023 256.61443359 69.21655273 255.06787109 C67.2309741 252.79171998 65.41272858 251.00428754 63.13189697 249.07569885 C58.00799158 244.63333494 53.23833744 239.86228339 48.44604492 235.06762695 C47.44663819 234.07121905 46.44702908 233.0750141 45.44723511 232.07899475 C42.75502881 229.39555312 40.06600779 226.70894217 37.37786007 224.0214355 C35.69520643 222.33949597 34.01184134 220.65827185 32.32822418 218.97729683 C26.44668151 213.10497834 20.56769965 207.23011033 14.69116211 201.3527832 C9.22432148 195.88534061 3.75191323 190.42351478 -1.72310376 184.964261 C-6.43684462 180.26360596 -11.14671156 175.55909308 -15.85359454 170.85157114 C-18.65926998 168.04564129 -21.46646116 165.24127106 -24.277565 162.44077873 C-26.91846536 159.80957843 -29.55449635 157.17359447 -32.18691635 154.53391075 C-33.60929722 153.10999107 -35.0366094 151.69100268 -36.46408081 150.27218628 C-40.62340222 146.09239243 -44.23211162 142.13106188 -47.34594727 137.13037109 C-49.44634058 135.74168593 -49.44634058 135.74168593 -51.34594727 135.13037109 C-50.35594727 134.80037109 -49.36594727 134.47037109 -48.34594727 134.13037109 C-48.5082785 133.12817032 -48.67060974 132.12596954 -48.83786011 131.09339905 C-49.33074853 127.24891971 -49.47290929 123.59543768 -49.4753418 119.72192383 C-49.47707146 119.01368973 -49.47880112 118.30545563 -49.48058319 117.57575989 C-49.48491454 115.23847072 -49.48200206 112.90125486 -49.47875977 110.56396484 C-49.47977546 108.90373208 -49.48111495 107.24349948 -49.48275757 105.58326721 C-49.48544744 101.15691817 -49.4810133 96.73060436 -49.47451782 92.30426025 C-49.47095188 89.57141006 -49.46933031 86.83856511 -49.46826172 84.10571289 C-49.45479385 56.43728205 -49.20565209 28.78725805 -48.34594727 1.13037109 C-32.23528583 0.05982234 -16.13860719 -0.0257795 0 0 Z " fill="#BBE396" transform="translate(212.345947265625,29.86962890625)"/>
<path d="M0 0 C3.55431982 1.30169707 7.151984 2.47057847 10.74755859 3.65234375 C13.93505859 4.71484375 13.93505859 4.71484375 17.12255859 5.77734375 C16.6613254 13.14951363 14.75142701 19.0438616 11.93505859 25.83984375 C11.11901203 27.86290137 10.30391323 29.88634154 9.48974609 31.91015625 C9.08852539 32.89918945 8.68730469 33.88822266 8.27392578 34.90722656 C6.63771985 38.98594516 5.08914869 43.09499336 3.56005859 47.21484375 C3.30909424 47.88845947 3.05812988 48.5620752 2.79956055 49.25610352 C2.23897319 50.76259411 1.68047941 52.26986358 1.12255859 53.77734375 C-13.6085922 49.44103423 -13.6085922 49.44103423 -20.46337891 46.76953125 C-31.39752754 42.53998952 -41.5933607 41.58691923 -53.25244141 41.46484375 C-54.29940186 41.44711914 -55.3463623 41.42939453 -56.42504883 41.41113281 C-61.95312013 41.41646321 -66.17368848 41.51853453 -70.87744141 44.77734375 C-73.5594572 48.80036745 -74.6448727 51.98089814 -73.87744141 56.77734375 C-70.10201561 65.8602522 -62.08048615 70.11145115 -53.40087891 73.78125 C-50.36371179 74.98013176 -47.30831584 76.12702031 -44.25244141 77.27734375 C-39.45743675 79.09498505 -35.26218066 81.1465002 -30.87744141 83.77734375 C-29.21195847 84.48197115 -27.54629831 85.18621375 -25.87744141 85.8828125 C-8.60679198 93.60738031 5.50045636 104.79156741 14.12255859 121.77734375 C14.46158203 122.43089844 14.80060547 123.08445313 15.14990234 123.7578125 C21.51016791 138.09214237 20.38668096 158.3963524 15.38867188 172.90820312 C7.39491244 192.99435767 -8.53582264 205.22362456 -27.87744141 213.77734375 C-56.30880858 225.38051261 -96.82023509 223.02470663 -124.87744141 211.77734375 C-128.58753107 210.19730556 -132.27014433 208.58099229 -135.87744141 206.77734375 C-135.87744141 188.95734375 -135.87744141 171.13734375 -135.87744141 152.77734375 C-132.08764477 153.53530308 -130.34374587 153.88468343 -127.23291016 155.6171875 C-122.39888087 158.12535683 -117.3814704 159.73270664 -112.18994141 161.33984375 C-111.21750488 161.6435791 -110.24506836 161.94731445 -109.24316406 162.26025391 C-98.98315952 165.42282983 -89.11182658 167.95985826 -78.33837891 168.56640625 C-75.87744141 168.77734375 -75.87744141 168.77734375 -72.87744141 169.77734375 C-60.72172094 170.86525873 -60.72172094 170.86525873 -49.45947266 167.23828125 C-45.13508158 163.24489295 -42.37432763 158.95599871 -41.06494141 153.21484375 C-42.31143903 147.94119994 -44.66322955 145.14353448 -48.87744141 141.77734375 C-56.30093952 137.38081843 -64.24508355 134.05142003 -72.12670898 130.57250977 C-88.61781032 123.26799676 -104.31958314 116.00971573 -116.87744141 102.77734375 C-117.993125 101.68873047 -117.993125 101.68873047 -119.13134766 100.578125 C-131.85601124 87.51542481 -135.3978615 70.62963749 -135.22705078 52.96386719 C-134.80143365 37.9464842 -128.83246919 23.84298888 -118.31494141 13.0234375 C-110.24455072 5.58677941 -102.22656545 1.30331319 -91.87744141 -2.22265625 C-90.458887 -2.78037849 -89.04189878 -3.34212366 -87.62744141 -3.91015625 C-60.54427802 -13.38926344 -26.44922556 -9.85183106 0 0 Z " fill="#383837" transform="translate(690.87744140625,58.22265625)"/>
<path d="M0 0 C3.16864704 1.3505733 4.70858002 2.62762819 6.6157074 5.4755249 C10.58001676 10.98006175 15.34954672 15.62201117 20.14868164 20.39160156 C21.16649313 21.41048808 22.183871 22.42980792 23.20085144 23.44952393 C25.94412733 26.1976144 28.69355857 28.93946726 31.44433141 31.68005085 C34.33073451 34.55762111 37.21181471 37.44051208 40.09361267 40.32269287 C44.92952822 45.15767437 49.76928635 49.98878175 54.61157227 54.81738281 C60.20331128 60.39337687 65.7897867 65.97460008 71.37329203 71.55883813 C77.33154102 77.5177633 83.29359275 83.47287255 89.25676799 89.42686749 C90.96982448 91.13779675 92.68217298 92.84943187 94.39436531 94.56122589 C97.08671628 97.25256991 99.7816121 99.94134036 102.47847176 102.6281662 C103.4657339 103.61251647 104.45216234 104.59770374 105.43767929 105.58380127 C106.78642603 106.93304171 108.13856818 108.27888541 109.49085999 109.62457275 C110.24538987 110.3774268 110.99991976 111.13028084 111.77731419 111.90594864 C114.08665605 114.08164096 116.51295382 116.03211737 119 118 C120.2657149 119.29868944 121.49787868 120.63126716 122.6875 122 C123.26886719 122.66 123.85023438 123.32 124.44921875 124 C126 126 126 126 128 130 C86.09 130 44.18 130 1 130 C1 88.42 1 46.84 1 4 C0.34 4 -0.32 4 -1 4 C-0.67 2.68 -0.34 1.36 0 0 Z " fill="#011F4A" transform="translate(163,166)"/>
<path d="M0 0 C3.68656417 0.00574983 7.37305633 0.00236846 11.059618 -0.00357246 C13.94231703 -0.00720538 16.82499926 -0.00602791 19.70769882 -0.00344467 C21.71822915 -0.00247006 23.72876018 -0.00546266 25.73928833 -0.00857544 C32.64578932 0.00903759 39.41542482 0.25592249 46.26953125 1.13037109 C46.26953125 1.79037109 46.26953125 2.45037109 46.26953125 3.13037109 C45.54449402 3.12592987 44.81945679 3.12148865 44.07244873 3.11691284 C37.18905313 3.07658702 30.30567553 3.04626139 23.42219162 3.02674675 C19.88459929 3.01637633 16.34710579 3.00234289 12.80957031 2.97949219 C8.72850681 2.95330008 4.64754466 2.9438427 0.56640625 2.93505859 C-0.68408508 2.92473602 -1.93457642 2.91441345 -3.22296143 2.90377808 C-10.12673273 2.90290924 -16.62721123 3.40222249 -23.41278076 4.69973755 C-25.73046875 5.13037109 -25.73046875 5.13037109 -27.73046875 5.13037109 C-27.40046875 6.12037109 -27.07046875 7.11037109 -26.73046875 8.13037109 C-30.48046875 9.25537109 -30.48046875 9.25537109 -32.73046875 8.13037109 C-33.06046875 9.45037109 -33.39046875 10.77037109 -33.73046875 12.13037109 C-34.39046875 12.13037109 -35.05046875 12.13037109 -35.73046875 12.13037109 C-36.06046875 12.79037109 -36.39046875 13.45037109 -36.73046875 14.13037109 C-37.36984375 14.23349609 -38.00921875 14.33662109 -38.66796875 14.44287109 C-40.94110495 14.93685979 -40.94110495 14.93685979 -41.85546875 17.25537109 C-42.14421875 18.20412109 -42.43296875 19.15287109 -42.73046875 20.13037109 C-43.10171875 21.20287109 -43.47296875 22.27537109 -43.85546875 23.38037109 C-44.73336159 27.14276899 -44.85706785 30.28625438 -44.703125 34.11474609 C-44.73046875 36.13037109 -44.73046875 36.13037109 -45.73046875 39.13037109 C-45.93602814 43.52692379 -45.91626953 47.92588586 -45.91577148 52.32666016 C-45.91795385 54.49059842 -45.93610997 56.65402326 -45.95507812 58.81787109 C-45.9580132 60.20068186 -45.95999723 61.58349503 -45.9609375 62.96630859 C-45.96710083 64.84648682 -45.96710083 64.84648682 -45.97338867 66.76464844 C-45.73964631 70.00321349 -45.12618732 72.22415105 -43.73046875 75.13037109 C-44.39046875 75.13037109 -45.05046875 75.13037109 -45.73046875 75.13037109 C-45.21598456 82.1561031 -45.21598456 82.1561031 -43.66796875 89.00537109 C-41.975916 94.64554691 -43.15773817 98.98490992 -45.73046875 104.13037109 C-46.34294072 112.43388456 -46.76424314 119.2089313 -41.73046875 126.13037109 C-41.73046875 127.12037109 -41.73046875 128.11037109 -41.73046875 129.13037109 C-42.36984375 129.60474609 -43.00921875 130.07912109 -43.66796875 130.56787109 C-45.89781485 131.95516396 -45.89781485 131.95516396 -46.48046875 134.31787109 C-46.56296875 134.91599609 -46.64546875 135.51412109 -46.73046875 136.13037109 C-48.38046875 135.80037109 -50.03046875 135.47037109 -51.73046875 135.13037109 C-50.74046875 134.80037109 -49.75046875 134.47037109 -48.73046875 134.13037109 C-48.97396561 132.62706993 -48.97396561 132.62706993 -49.22238159 131.09339905 C-49.71527001 127.24891971 -49.85743078 123.59543768 -49.85986328 119.72192383 C-49.86245777 118.65957268 -49.86245777 118.65957268 -49.86510468 117.57575989 C-49.86943603 115.23847072 -49.86652355 112.90125486 -49.86328125 110.56396484 C-49.86429694 108.90373208 -49.86563643 107.24349948 -49.86727905 105.58326721 C-49.86996892 101.15691817 -49.86553478 96.73060436 -49.85903931 92.30426025 C-49.85547337 89.57141006 -49.8538518 86.83856511 -49.8527832 84.10571289 C-49.83931533 56.43728205 -49.59017357 28.78725805 -48.73046875 1.13037109 C-32.49110659 0.04610037 -16.26704475 -0.02572483 0 0 Z " fill="#BFE19C" transform="translate(212.73046875,29.86962890625)"/>
<path d="M0 0 C5.8587357 4.86278917 11.23644152 10.10078525 16.60717773 15.49365234 C17.55379596 16.44055319 18.50063551 17.38723281 19.44767761 18.33370972 C21.99901164 20.88475868 24.5472664 23.43886305 27.09495044 25.9935565 C29.76503319 28.66992131 32.43797774 31.34342496 35.11061096 34.01724243 C40.16270611 39.07243665 45.21224829 44.13017292 50.26086241 49.18884337 C56.01225297 54.95143942 61.76650792 60.71117162 67.52099693 66.47067332 C79.35050567 78.3106142 91.17643916 90.15411938 103 102 C101.515 102.495 101.515 102.495 100 103 C99.34 102.01 98.68 101.02 98 100 C97.67 100.33 97.34 100.66 97 101 C95.515 101.495 95.515 101.495 94 102 C92.34558792 100.89705861 90.70297186 99.77227843 89.125 98.5625 C86.97572198 96.91960392 86.97572198 96.91960392 84.375 95.5 C82 94 82 94 80 91 C79.875 88.3125 79.875 88.3125 80 86 C78.35 86 76.7 86 75 86 C74.773125 85.195625 74.54625 84.39125 74.3125 83.5625 C73.879375 82.716875 73.44625 81.87125 73 81 C70.48051222 80.26259783 70.48051222 80.26259783 68 80 C67.67 79.34 67.34 78.68 67 78 C65.515 77.505 65.515 77.505 64 77 C63.67 76.01 63.34 75.02 63 74 C63.33 73.34 63.66 72.68 64 72 C65.98 72.99 65.98 72.99 68 74 C68 74.66 68 75.32 68 76 C68.66 76 69.32 76 70 76 C69.505 75.05125 69.01 74.1025 68.5 73.125 C67 70 67 70 67 68 C66.21625 68.495 65.4325 68.99 64.625 69.5 C62 71 62 71 60 71 C59.29925156 67.846632 59 65.27275026 59 62 C56.74002358 59.42613797 54.45268071 57.33033457 51.6875 55.3125 C51.130625 54.879375 50.57375 54.44625 50 54 C50 53.34 50 52.68 50 52 C49.01 51.67 48.02 51.34 47 51 C45.5703125 49.546875 45.5703125 49.546875 44.125 47.75 C40.73663876 43.65050122 37.03213197 39.98625944 33.1875 36.3125 C31 34 31 34 31 32 C30.44828125 31.773125 29.8965625 31.54625 29.328125 31.3125 C26.31307583 29.61274074 24.18769631 27.45195184 21.75 25 C20.85796875 24.113125 19.9659375 23.22625 19.046875 22.3125 C17 20 17 20 17 18 C16.34 18 15.68 18 15 18 C15 17.34 15 16.68 15 16 C14.443125 15.773125 13.88625 15.54625 13.3125 15.3125 C10.3530491 13.63281165 8.33873216 11.45866715 6 9 C5.1028125 8.1646875 5.1028125 8.1646875 4.1875 7.3125 C3 6 3 6 3 4 C2.01 3.67 1.02 3.34 0 3 C0 2.01 0 1.02 0 0 Z " fill="#031D46" transform="translate(171,175)"/>
<path d="M0 0 C4.80730245 3.9129206 9.23838317 8.12826357 13.625 12.5 C14.17502686 13.04551514 14.72505371 13.59103027 15.29174805 14.15307617 C17.90076814 16.77151937 20.39922564 19.41935966 22.75 22.2734375 C24.89898714 25.01681017 24.89898714 25.01681017 27.375 27.125 C28.179375 28.053125 28.179375 28.053125 29 29 C28.75 31.25 28.75 31.25 28 33 C28.66 33 29.32 33 30 33 C30.17715619 49.13294235 30.34283725 65.26595506 30.49477577 81.39915276 C30.56558891 88.88970443 30.64018785 96.38018299 30.72363281 103.87060547 C30.79633532 110.39758871 30.86200236 116.92459786 30.91914403 123.45173657 C30.94966114 126.90932019 30.9837531 130.36678677 31.02626419 133.82424545 C31.07353441 137.67947141 31.10510025 141.53473692 31.13525391 145.39013672 C31.1517952 146.54243774 31.16833649 147.69473877 31.18537903 148.88195801 C31.19104385 149.92806244 31.19670868 150.97416687 31.20254517 152.05197144 C31.2117631 152.96454649 31.22098103 153.87712154 31.23047829 154.81735039 C31 157 31 157 29 159 C28.16037311 152.32908539 27.79896668 145.76658388 27.68359375 139.046875 C27.66276733 138.00422485 27.64194092 136.96157471 27.6204834 135.8873291 C27.554792 132.5082889 27.49575445 129.12917599 27.4375 125.75 C27.41632111 124.60092163 27.39514221 123.45184326 27.37332153 122.26794434 C26.9978038 101.84390281 26.87393231 81.42684554 27 61 C25.515 61.495 25.515 61.495 24 62 C23.34 60.35 22.68 58.7 22 57 C22.66 57 23.32 57 24 57 C23.7525 55.7934375 23.7525 55.7934375 23.5 54.5625 C23.00222911 51.01588242 22.96233579 47.71678736 23.0625 44.1484375 C23.08921876 41.97120632 23.08921876 41.97120632 22.375 39.8515625 C22.25125 39.24054688 22.1275 38.62953125 22 38 C22.66 37.34 23.32 36.68 24 36 C24.24287489 33.55987051 24.24287489 33.55987051 24.125 30.875 C24.10695312 29.96492188 24.08890625 29.05484375 24.0703125 28.1171875 C24.04710937 27.41851562 24.02390625 26.71984375 24 26 C23.34 26 22.68 26 22 26 C22 25.34 22 24.68 22 24 C21.01 24.33 20.02 24.66 19 25 C16.37156116 23.99500868 15.27596315 23.55192629 14 21 C13.01 20.34 12.02 19.68 11 19 C11.99 18.67 12.98 18.34 14 18 C13.40832031 17.34773438 12.81664062 16.69546875 12.20703125 16.0234375 C0 2.52202284 0 2.52202284 0 0 Z " fill="#EF3B0E" transform="translate(134,137)"/>
<path d="M0 0 C4.66154042 1.49835228 5.86610751 4.88463591 8 9 C6.68 9 5.36 9 4 9 C3.67 44.31 3.34 79.62 3 116 C3.66 116 4.32 116 5 116 C4.896875 116.928125 4.79375 117.85625 4.6875 118.8125 C4.790625 119.864375 4.89375 120.91625 5 122 C7.85074644 124.31141604 9.3139451 125 13 125 C14.7893564 125.07817577 16.57839272 125.16378951 18.3671875 125.25390625 C19.41777344 125.30353516 20.46835938 125.35316406 21.55078125 125.40429688 C23.75932185 125.50940368 25.96766494 125.61874962 28.17578125 125.73242188 C29.22894531 125.78076172 30.28210938 125.82910156 31.3671875 125.87890625 C32.32737793 125.9260376 33.28756836 125.97316895 34.27685547 126.02172852 C37.0108396 126.08789554 37.0108396 126.08789554 39.67626953 125.44897461 C42.67188239 124.87018368 44.30340147 125.69022357 47 127 C47 127.66 47 128.32 47 129 C53.27 129 59.54 129 66 129 C66 129.33 66 129.66 66 130 C44.55 130 23.1 130 1 130 C1 88.42 1 46.84 1 4 C0.34 4 -0.32 4 -1 4 C-0.67 2.68 -0.34 1.36 0 0 Z " fill="#061C3D" transform="translate(163,166)"/>
<path d="M0 0 C3.68656417 0.00574983 7.37305633 0.00236846 11.059618 -0.00357246 C13.94231703 -0.00720538 16.82499926 -0.00602791 19.70769882 -0.00344467 C21.71822915 -0.00247006 23.72876018 -0.00546266 25.73928833 -0.00857544 C32.64578932 0.00903759 39.41542482 0.25592249 46.26953125 1.13037109 C46.26953125 1.79037109 46.26953125 2.45037109 46.26953125 3.13037109 C45.53783218 3.12815048 44.80613312 3.12592987 44.05226135 3.12364197 C37.12376506 3.10352374 30.19527319 3.08833849 23.2667551 3.07855892 C19.70557461 3.07336199 16.14441845 3.06632294 12.58325195 3.05493164 C8.47997822 3.04188987 4.37672967 3.03711653 0.2734375 3.03271484 C-0.99253769 3.02755356 -2.25851288 3.02239227 -3.56285095 3.01707458 C-10.0466968 3.01666667 -16.3031058 3.27808826 -22.73046875 4.13037109 C-25.31246903 4.33541229 -27.89585345 4.52395951 -30.48046875 4.69287109 C-31.7334375 4.77666016 -32.98640625 4.86044922 -34.27734375 4.94677734 C-36.34792638 5.05686488 -38.42275416 5.12157086 -40.49609375 5.09521484 C-42.90412036 5.02088628 -42.90412036 5.02088628 -45.73046875 6.13037109 C-46.85850152 15.96369559 -47.03159475 25.80855339 -47.23046875 35.69287109 C-47.27067446 37.55843266 -47.31096022 39.4239925 -47.35131836 41.28955078 C-47.95320812 69.90029001 -48.32597017 98.51629589 -48.73046875 127.13037109 C-49.06046875 127.13037109 -49.39046875 127.13037109 -49.73046875 127.13037109 C-49.76099881 114.75538138 -49.78141982 102.38039302 -49.79296875 90.00537109 C-49.79382477 89.09456787 -49.79468079 88.18376465 -49.79556274 87.24536133 C-49.81941958 58.52808945 -49.62277915 29.83618661 -48.73046875 1.13037109 C-32.49110659 0.04610037 -16.26704475 -0.02572483 0 0 Z " fill="#DCEBCE" transform="translate(212.73046875,29.86962890625)"/>
<path d="M0 0 C0.33 0.66 0.66 1.32 1 2 C1.66 2 2.32 2 3 2 C3.17715619 18.13294235 3.34283725 34.26595506 3.49477577 50.39915276 C3.56558891 57.88970443 3.64018785 65.38018299 3.72363281 72.87060547 C3.79633532 79.39758871 3.86200236 85.92459786 3.91914403 92.45173657 C3.94966114 95.90932019 3.9837531 99.36678677 4.02626419 102.82424545 C4.07353441 106.67947141 4.10510025 110.53473692 4.13525391 114.39013672 C4.1517952 115.54243774 4.16833649 116.69473877 4.18537903 117.88195801 C4.19104385 118.92806244 4.19670868 119.97416687 4.20254517 121.05197144 C4.2117631 121.96454649 4.22098103 122.87712154 4.23047829 123.81735039 C4 126 4 126 2 128 C1.1333058 121.23871567 0.83373461 114.62081449 0.79467773 107.80810547 C0.78477814 106.72563538 0.77487854 105.64316528 0.76467896 104.52789307 C0.73327107 100.97434621 0.70837895 97.42078619 0.68359375 93.8671875 C0.6629965 91.38574906 0.64199935 88.90431391 0.62062073 86.42288208 C0.5655793 79.90564717 0.51611178 73.38838135 0.46777344 66.87109375 C0.41756409 60.24346053 0.36179392 53.61587502 0.30664062 46.98828125 C0.22696569 37.30324359 0.14905993 27.61819492 0.07592773 17.93310547 C0.06814804 16.92512909 0.06036835 15.91715271 0.05235291 14.87863159 C0.01554335 9.91891625 -0.00835625 4.95985112 0 0 Z " fill="#AD3B2D" transform="translate(161,168)"/>
<path d="M0 0 C3.68242904 2.97426961 7.06712306 5.94632753 10.0625 9.625 C11.9862872 11.96102731 13.34761844 13.22928025 15.9375 14.9375 C18.57381388 16.7129767 19.90679322 17.92809565 21.86938477 20.30078125 C27.2934335 26.60805784 33.2610599 32.38434298 39.15234375 38.25 C40.42051264 39.51630043 41.68845842 40.78282433 42.95619202 42.04956055 C46.26980711 45.35938421 49.58641572 48.6661919 52.90368652 51.97235107 C56.29765305 55.35603039 59.6887388 58.74259415 63.08007812 62.12890625 C69.7172578 68.75540822 76.35760795 75.37872318 83 82 C81.515 82.495 81.515 82.495 80 83 C78.85111717 81.87811441 77.70598863 80.75238316 76.5625 79.625 C75.92441406 78.99851562 75.28632812 78.37203125 74.62890625 77.7265625 C73 76 73 76 72 74 C70.515 73.505 70.515 73.505 69 73 C67.38671875 71.36328125 67.38671875 71.36328125 65.6875 69.3125 C63.41239335 66.61625658 61.1077983 64.06776258 58.5625 61.625 C56 59 56 59 56 57 C55.01 57 54.02 57 53 57 C52.505 55.02 52.505 55.02 52 53 C51.01 53 50.02 53 49 53 C47.45703125 51.53125 47.45703125 51.53125 45.8125 49.5 C42.5908994 45.63132578 39.14748437 42.13479536 35.50390625 38.6640625 C34 37 34 37 34 35 C33.4225 34.7525 32.845 34.505 32.25 34.25 C29.67060021 32.81700012 27.93878408 31.21575324 26 29 C26 28.34 26 27.68 26 27 C25.443125 26.773125 24.88625 26.54625 24.3125 26.3125 C21.34095104 24.62594519 19.397301 22.44443894 17 20 C15.89134504 18.91069854 14.78056785 17.82355391 13.66796875 16.73828125 C12.50775071 15.59641694 11.34759529 14.45448901 10.1875 13.3125 C9.59001953 12.73177734 8.99253906 12.15105469 8.37695312 11.55273438 C6.87985327 10.07274424 5.43511269 8.54017218 4 7 C4 6.34 4 5.68 4 5 C2.68 4.34 1.36 3.68 0 3 C0 2.01 0 1.02 0 0 Z " fill="#DD5B40" transform="translate(51,54)"/>
<path d="M0 0 C4.66154042 1.49835228 5.86610751 4.88463591 8 9 C6.68 9 5.36 9 4 9 C3.82441932 17.91650634 3.65923296 26.83318748 3.5 35.75 C3.48797546 36.41900581 3.47595093 37.08801163 3.46356201 37.77729034 C3.06246103 60.19436891 2.90854406 82.60117149 3.03710938 105.02246094 C3.04133911 106.06002533 3.04556885 107.09758972 3.04992676 108.16659546 C3.05801975 110.08591103 3.07029874 112.00521587 3.08776855 113.92446899 C3.10498848 118.40563564 2.91786614 122.5886414 2 127 C1.67 127 1.34 127 1 127 C1 86.41 1 45.82 1 4 C0.34 4 -0.32 4 -1 4 C-0.67 2.68 -0.34 1.36 0 0 Z " fill="#393737" transform="translate(163,166)"/>
<path d="M0 0 C11.22 0 22.44 0 34 0 C30.08563796 1.95718102 28.46185795 2.2740432 24.24609375 2.37890625 C23.14458984 2.41306641 22.04308594 2.44722656 20.90820312 2.48242188 C19.76287109 2.50884766 18.61753906 2.53527344 17.4375 2.5625 C15.16525827 2.62239644 12.89311097 2.68602524 10.62109375 2.75390625 C9.11180298 2.78979858 9.11180298 2.78979858 7.57202148 2.82641602 C4.88174734 2.89962346 4.88174734 2.89962346 2 4 C0.87196723 13.8333245 0.698874 23.6781823 0.5 33.5625 C0.45979429 35.42806157 0.41950853 37.29362141 0.37915039 39.15917969 C-0.22273937 67.76991892 -0.59550142 96.3859248 -1 125 C-1.33 125 -1.66 125 -2 125 C-2.02355627 115.12196364 -2.04112886 105.24393436 -2.05181217 95.36587524 C-2.05694915 90.77515648 -2.06387097 86.18445742 -2.07543945 81.59375 C-2.11986556 63.45280253 -2.12840614 45.32121073 -1.55859375 27.1875 C-1.51960464 25.93211426 -1.48061554 24.67672852 -1.44044495 23.38330078 C-1.16506941 15.55122519 -0.60267418 7.8347644 0 0 Z " fill="#CBE5B5" transform="translate(165,32)"/>
<path d="M0 0 C0.33 0 0.66 0 1 0 C1 13.2 1 26.4 1 40 C42.58 39.67 84.16 39.34 127 39 C127.495 38.01 127.495 38.01 128 37 C128.639375 36.855625 129.27875 36.71125 129.9375 36.5625 C132.38210855 36.13834965 132.38210855 36.13834965 134 33 C134 35.64 134 38.28 134 41 C89.78 41 45.56 41 0 41 C0 27.47 0 13.94 0 0 Z " fill="#E73F19" transform="translate(29,255)"/>
<path d="M0 0 C4.60409633 3.85097991 8.98167412 7.83927177 13.21069336 12.09716797 C13.78717621 12.67350479 14.36365906 13.24984161 14.95761108 13.84364319 C16.83740595 15.72412735 18.71364693 17.60811409 20.58984375 19.4921875 C21.90241431 20.80662574 23.21520776 22.12084144 24.5282135 23.43484497 C27.96463602 26.87506512 31.39804337 30.31827893 34.83081055 33.762146 C38.34175501 37.28336411 41.8555717 40.80171349 45.36914062 44.3203125 C52.24889212 51.21075268 59.12545855 58.10436205 66 65 C64.515 65.495 64.515 65.495 63 66 C61.1328125 64.7421875 61.1328125 64.7421875 59.125 62.875 C58.42632812 62.22917969 57.72765625 61.58335937 57.0078125 60.91796875 C56.34523437 60.28503906 55.68265625 59.65210938 55 59 C54.46117187 58.50113281 53.92234375 58.00226563 53.3671875 57.48828125 C52.19635034 56.37431332 51.09049554 55.1927295 50 54 C50 53.34 50 52.68 50 52 C49.01 51.67 48.02 51.34 47 51 C45.5703125 49.546875 45.5703125 49.546875 44.125 47.75 C40.73663876 43.65050122 37.03213197 39.98625944 33.1875 36.3125 C31 34 31 34 31 32 C30.44828125 31.773125 29.8965625 31.54625 29.328125 31.3125 C26.31307583 29.61274074 24.18769631 27.45195184 21.75 25 C20.85796875 24.113125 19.9659375 23.22625 19.046875 22.3125 C17 20 17 20 17 18 C16.34 18 15.68 18 15 18 C15 17.34 15 16.68 15 16 C14.443125 15.773125 13.88625 15.54625 13.3125 15.3125 C10.3530491 13.63281165 8.33873216 11.45866715 6 9 C5.1028125 8.1646875 5.1028125 8.1646875 4.1875 7.3125 C3 6 3 6 3 4 C2.01 3.67 1.02 3.34 0 3 C0 2.01 0 1.02 0 0 Z " fill="#1A2739" transform="translate(171,175)"/>
<path d="M0 0 C0.33091634 11.64774026 0.6450462 23.29580055 0.93773937 34.94456768 C1.07417579 40.35352683 1.21639513 45.762205 1.37182617 51.1706543 C1.52160679 56.38989287 1.65620228 61.60932222 1.78026772 66.82923317 C1.83027577 68.82087343 1.88575866 70.81238397 1.94679832 72.80371666 C2.0313488 75.59255052 2.09643722 78.38121039 2.15698242 81.1706543 C2.20121338 82.40603943 2.20121338 82.40603943 2.24633789 83.66638184 C2.32379383 88.32525089 1.94268013 91.15295066 -1 95 C-1.95697028 91.90077644 -1.96512593 89.61405986 -1.53515625 86.4140625 C-0.76031329 78.90442878 -1.09855725 71.45841618 -1.35180664 63.92810059 C-1.49739564 59.59050253 -1.6225475 55.25233698 -1.74609375 50.9140625 C-1.77069672 50.05876953 -1.79529968 49.20347656 -1.82064819 48.32226562 C-2.04396054 40.17200238 -2.06862885 32.02948717 -1.96264648 23.87646484 C-1.89157333 16.23230531 -1.9521106 8.41284336 -4 1 C-2 0 -2 0 0 0 Z " fill="#F33809" transform="translate(161,198)"/>
<path d="M0 0 C4.59037956 1.14759489 5.33669182 2.29039218 8 6 C6.125 5.6875 6.125 5.6875 4 5 C3.34 4.01 2.68 3.02 2 2 C1.67 55.46 1.34 108.92 1 164 C0.67 164 0.34 164 0 164 C0 109.88 0 55.76 0 0 Z " fill="#E8411A" transform="translate(29,35)"/>
<path d="M0 0 C0.87423111 -0.00315216 1.74846222 -0.00630432 2.64918518 -0.009552 C3.5898735 -0.00752777 4.53056183 -0.00550354 5.49975586 -0.00341797 C6.95121254 -0.00485306 6.95121254 -0.00485306 8.43199158 -0.00631714 C10.47712265 -0.00699761 12.52225589 -0.00515259 14.56738281 -0.00097656 C17.70569684 0.00437934 20.84386813 -0.00092904 23.98217773 -0.00732422 C25.96720409 -0.00666353 27.95223036 -0.00538255 29.93725586 -0.00341797 C30.87996841 -0.0054422 31.82268097 -0.00746643 32.79396057 -0.009552 C33.66503952 -0.00639984 34.53611847 -0.00324768 35.43359375 0 C36.5858419 0.00119339 36.5858419 0.00119339 37.7613678 0.00241089 C39.65209961 0.12939453 39.65209961 0.12939453 41.65209961 1.12939453 C43.18878826 1.35407284 44.73178015 1.53736259 46.27709961 1.69189453 C47.09436523 1.77568359 47.91163086 1.85947266 48.75366211 1.94580078 C49.38014648 2.00638672 50.00663086 2.06697266 50.65209961 2.12939453 C50.65209961 2.45939453 50.65209961 2.78939453 50.65209961 3.12939453 C27.88209961 3.12939453 5.11209961 3.12939453 -18.34790039 3.12939453 C-18.34790039 2.79939453 -18.34790039 2.46939453 -18.34790039 2.12939453 C-17.58864258 2.06880859 -16.82938477 2.00822266 -16.04711914 1.94580078 C-15.05325195 1.86201172 -14.05938477 1.77822266 -13.03540039 1.69189453 C-12.04926758 1.61068359 -11.06313477 1.52947266 -10.04711914 1.44580078 C-6.53162019 1.03370901 -3.57960167 0.00370358 0 0 Z " fill="#494748" transform="translate(409.347900390625,180.87060546875)"/>
<path d="M0 0 C7.11905227 5.80683219 13.47374812 12.36285444 19.9375 18.875 C21.10979204 20.05231638 22.28231614 21.22940174 23.45507812 22.40625 C26.30606982 25.26817489 29.15389615 28.13321457 32 31 C31.01 31.33 30.02 31.66 29 32 C28.34 31.01 27.68 30.02 27 29 C26.67 29.33 26.34 29.66 26 30 C25.01 30.33 24.02 30.66 23 31 C22.01 30.34 21.02 29.68 20 29 C20.226875 28.401875 20.45375 27.80375 20.6875 27.1875 C21.2687116 24.94944942 21.2687116 24.94944942 19.75 23.3125 C17.9242371 21.79906361 17.9242371 21.79906361 15 21 C14.30341637 19.34561387 13.63903117 17.67745682 13 16 C12.01904252 14.98131338 11.02297922 13.97648017 10 13 C10 12.34 10 11.68 10 11 C9.01 10.67 8.02 10.34 7 10 C7 9.34 7 8.68 7 8 C6.401875 7.731875 5.80375 7.46375 5.1875 7.1875 C2.98180967 5.99012525 1.56416813 4.95521016 0 3 C0 2.01 0 1.02 0 0 Z " fill="#071F43" transform="translate(242,246)"/>
<path d="M0 0 C0.66 0.99 1.32 1.98 2 3 C1.42190703 5.35684056 0.74386068 7.69011685 0 10 C-0.98721141 14.54527093 -0.98721141 14.54527093 0 19 C0.01583723 20.92093176 -0.03342391 22.84272328 -0.12109375 24.76171875 C-0.16943359 25.87998047 -0.21777344 26.99824219 -0.26757812 28.15039062 C-0.32365234 29.31763672 -0.37972656 30.48488281 -0.4375 31.6875 C-0.48970703 32.86634766 -0.54191406 34.04519531 -0.59570312 35.25976562 C-0.72546194 38.17344094 -0.86043132 41.08678078 -1 44 C-6.22642784 34.03131847 -5.49030568 18.09185627 -2.5625 7.4375 C-2.06945579 5.94883993 -1.55408549 4.46703465 -1 3 C-0.67 2.01 -0.34 1.02 0 0 Z " fill="#4A494A" transform="translate(560,90)"/>
<path d="M0 0 C2.04159095 -0.0272616 4.08328963 -0.04651345 6.125 -0.0625 C7.26195312 -0.07410156 8.39890625 -0.08570312 9.5703125 -0.09765625 C13 0 13 0 19 1 C19 9.25 19 17.5 19 26 C18.34 25.67 17.68 25.34 17 25 C17 22 17 19 17 16 C16.67 15.01 16.34 14.02 16 13 C16.27769908 10.6593935 16.60539977 8.32375692 17 6 C16.34 5.67 15.68 5.34 15 5 C14.67 4.67 14.34 4.34 14 4 C12.02 5.32 10.04 6.64 8 8 C7.67 6.02 7.34 4.04 7 2 C4.69 2 2.38 2 0 2 C0 1.34 0 0.68 0 0 Z " fill="#C3E5A7" transform="translate(273,31)"/>
<path d="M0 0 C0 0.66 0 1.32 0 2 C-14.85 2 -29.7 2 -45 2 C-45 1.34 -45 0.68 -45 0 C-40.52030401 -0.16989559 -36.04038868 -0.33016483 -31.56005859 -0.48217773 C-30.04141367 -0.53498202 -28.52285199 -0.59024831 -27.00439453 -0.64819336 C-17.91487316 -0.99317519 -9.06121804 -1.05100485 0 0 Z " fill="#CEE6B8" transform="translate(259,31)"/>
<path d="M0 0 C10.60765614 4.11880791 20.86379891 8.83295606 31 14 C30.67 14.66 30.34 15.32 30 16 C25.89100419 14.87204037 21.92438786 13.66489182 18 12 C18 11.34 18 10.68 18 10 C17.278125 9.896875 16.55625 9.79375 15.8125 9.6875 C12.72206579 8.93206053 10.58256159 7.84468685 8 6 C8 5.34 8 4.68 8 4 C7.01 4.33 6.02 4.66 5 5 C2.3125 4.5625 2.3125 4.5625 0 4 C0 2.68 0 1.36 0 0 Z " fill="#595859" transform="translate(644,135)"/>
<path d="M0 0 C7.15801225 5.82628904 13.52591766 12.4382985 20 19 C19.67 19.66 19.34 20.32 19 21 C15.07936194 18.88092274 12.42387516 16.53863156 9.5 13.1875 C8.34177734 11.86298828 8.34177734 11.86298828 7.16015625 10.51171875 C6.44730469 9.68285156 5.73445312 8.85398438 5 8 C4.44183594 7.36707031 3.88367188 6.73414063 3.30859375 6.08203125 C0 2.26442308 0 2.26442308 0 0 Z " fill="#E05F44" transform="translate(134,137)"/>
<path d="M0 0 C1.15224028 0.92961422 2.29659176 1.8690125 3.4375 2.8125 C4.07558594 3.33457031 4.71367187 3.85664063 5.37109375 4.39453125 C7 6 7 6 8 9 C-0.25 9 -8.5 9 -17 9 C-17 8.67 -17 8.34 -17 8 C-15.19402344 7.90912109 -15.19402344 7.90912109 -13.3515625 7.81640625 C-11.77602923 7.73200268 -10.20050904 7.64735459 -8.625 7.5625 C-7.8309375 7.52318359 -7.036875 7.48386719 -6.21875 7.44335938 C-1.97398779 7.31106596 -1.97398779 7.31106596 2 6 C2 5.34 2 4.68 2 4 C1.34 3.67 0.68 3.34 0 3 C0 2.01 0 1.02 0 0 Z " fill="#0D1E35" transform="translate(283,287)"/>
<path d="M0 0 C7.15801225 5.82628904 13.52591766 12.4382985 20 19 C19.01 19.33 18.02 19.66 17 20 C15.82737096 18.88121617 14.66204862 17.75476949 13.5 16.625 C12.8503125 15.99851562 12.200625 15.37203125 11.53125 14.7265625 C10 13 10 13 10 11 C9.01 10.67 8.02 10.34 7 10 C7 9.34 7 8.68 7 8 C6.401875 7.731875 5.80375 7.46375 5.1875 7.1875 C2.98180967 5.99012525 1.56416813 4.95521016 0 3 C0 2.01 0 1.02 0 0 Z " fill="#192536" transform="translate(242,246)"/>
<path d="M0 0 C0.33 0 0.66 0 1 0 C1 5.28 1 10.56 1 16 C1.66 16 2.32 16 3 16 C3 20.62 3 25.24 3 30 C-0.35098794 23.29802411 -0.13050666 16.95925638 -0.0625 9.625 C-0.05798828 8.69816406 -0.05347656 7.77132812 -0.04882812 6.81640625 C-0.03711574 4.54420291 -0.02071372 2.27213612 0 0 Z " fill="#6B696B" transform="translate(556,104)"/>
<path d="M0 0 C6.83447318 0.24408833 11.12704509 2.11560623 16 7 C17.2265625 9.19921875 17.2265625 9.19921875 18 11 C17.01 11 16.02 11 15 11 C15 10.34 15 9.68 15 9 C14.34 9 13.68 9 13 9 C13 8.34 13 7.68 13 7 C12.34 7 11.68 7 11 7 C11 6.34 11 5.68 11 5 C10.01 5.33 9.02 5.66 8 6 C5.37156116 4.99500868 4.27596315 4.55192629 3 2 C2.01 1.34 1.02 0.68 0 0 Z " fill="#E54520" transform="translate(145,156)"/>
<path d="M0 0 C3.35594497 0.5786112 4.64000861 1.64000861 7 4 C7.99 4 8.98 4 10 4 C9.67 5.32 9.34 6.64 9 8 C5.37 6.35 1.74 4.7 -2 3 C-1.34 2.67 -0.68 2.34 0 2 C0 1.34 0 0.68 0 0 Z " fill="#4F4E4E" transform="translate(634,192)"/>
<path d="M0 0 C0.33 0 0.66 0 1 0 C1.33970765 2.49927769 1.67188032 4.99919595 2 7.5 C2.09539063 8.19609375 2.19078125 8.8921875 2.2890625 9.609375 C2.9161622 14.44700129 3.08789528 19.12181196 3 24 C2.67 24 2.34 24 2 24 C1.04738513 19.23692563 0.91666643 14.8333472 1 10 C0.01 9.67 -0.98 9.34 -2 9 C-2 7.68 -2 6.36 -2 5 C-1.34 5 -0.68 5 0 5 C0 3.35 0 1.7 0 0 Z " fill="#6A696A" transform="translate(707,188)"/>
<path d="M0 0 C0.66 0.66 1.32 1.32 2 2 C1.01 4.64 0.02 7.28 -1 10 C-2.32 9.34 -3.64 8.68 -5 8 C-4.67 7.67 -4.34 7.34 -4 7 C-4.99 6.34 -5.98 5.68 -7 5 C-6.67 4.34 -6.34 3.68 -6 3 C-5.01 3.33 -4.02 3.66 -3 4 C-2.01 2.68 -1.02 1.36 0 0 Z " fill="#454444" transform="translate(693,102)"/>
<path d="M0 0 C14.78132118 0.96355353 14.78132118 0.96355353 21 2 C21 2.33 21 2.66 21 3 C16.94020228 3.98419339 13.17300608 4.23183367 9 4 C8.01 3.34 7.02 2.68 6 2 C4.0103005 1.60986284 2.00980131 1.26797351 0 1 C0 0.67 0 0.34 0 0 Z " fill="#545253" transform="translate(654,51)"/>
<path d="M0 0 C3.05936637 3.75467691 5 7.08113061 5 12 C4.01 12 3.02 12 2 12 C1.4654744 10.75579353 0.94791389 9.50429064 0.4375 8.25 C0.14746094 7.55390625 -0.14257812 6.8578125 -0.44140625 6.140625 C-1.07831803 3.69987216 -0.80248831 2.3596345 0 0 Z " fill="#565556" transform="translate(702,176)"/>
<path d="M0 0 C1.32 0.66 2.64 1.32 4 2 C4 2.66 4 3.32 4 4 C4.66 4 5.32 4 6 4 C6 4.66 6 5.32 6 6 C4 7.625 4 7.625 2 9 C0 7.1875 0 7.1875 -2 5 C-2 4.01 -2 3.02 -2 2 C-1.34 2 -0.68 2 0 2 C0 1.34 0 0.68 0 0 Z " fill="#F73706" transform="translate(152,159)"/>
<path d="M0 0 C0.33 0 0.66 0 1 0 C1.06058594 0.61488281 1.12117187 1.22976562 1.18359375 1.86328125 C1.26738281 2.67152344 1.35117187 3.47976563 1.4375 4.3125 C1.51871094 5.11300781 1.59992187 5.91351563 1.68359375 6.73828125 C1.95265693 9.16087179 1.95265693 9.16087179 3 12 C3.78375 12.144375 4.5675 12.28875 5.375 12.4375 C8 13 8 13 10 14 C9.67 14.66 9.34 15.32 9 16 C4.545 14.02 4.545 14.02 0 12 C0 8.04 0 4.08 0 0 Z " fill="#454344" transform="translate(555,253)"/>
<path d="M0 0 C4 0 4 0 6 1 C5.67 3.31 5.34 5.62 5 8 C3.02 6.35 1.04 4.7 -1 3 C-0.67 2.01 -0.34 1.02 0 0 Z " fill="#B6CCA5" transform="translate(286,286)"/>
<path d="M0 0 C1.9375 0.3125 1.9375 0.3125 4 1 C4.33 1.99 4.66 2.98 5 4 C5.99 4.33 6.98 4.66 8 5 C8 5.66 8 6.32 8 7 C9.32 7.66 10.64 8.32 12 9 C11.67 9.99 11.34 10.98 11 12 C9.16364422 10.19047409 7.33083792 8.37759362 5.5 6.5625 C4.97535156 6.04623047 4.45070312 5.52996094 3.91015625 4.99804688 C2.58775448 3.68423213 1.29164432 2.34406495 0 1 C0 0.67 0 0.34 0 0 Z " fill="#93B889" transform="translate(191,194)"/>
<path d="M0 0 C4.52615993 3.67832017 8.39424999 7.41086363 12 12 C7.96945077 11.48256463 6.34736145 9.56870538 3.75 6.5625 C3.04359375 5.75941406 2.3371875 4.95632812 1.609375 4.12890625 C0 2 0 2 0 0 Z " fill="#DF6349" transform="translate(122,125)"/>
<path d="M0 0 C1.8871875 0.0309375 1.8871875 0.0309375 3.8125 0.0625 C2.1625 1.7125 0.5125 3.3625 -1.1875 5.0625 C-1.80625 4.7325 -2.425 4.4025 -3.0625 4.0625 C-5.09768344 2.92056765 -5.09768344 2.92056765 -7.1875 3.0625 C-7.1875 2.4025 -7.1875 1.7425 -7.1875 1.0625 C-4.43671116 0.14557039 -2.82801087 -0.04636083 0 0 Z " fill="#C1E7A3" transform="translate(203.1875,31.9375)"/>
<path d="M0 0 C4 4.625 4 4.625 4 8 C2.125 7.6875 2.125 7.6875 0 7 C-2 4 -2 4 -2 1 C-1.34 0.67 -0.68 0.34 0 0 Z " fill="#515050" transform="translate(697,168)"/>
<path d="M0 0 C2 3 2 3 1.5390625 5.48046875 C1.23742187 6.37378906 0.93578125 7.26710938 0.625 8.1875 C0.32851563 9.08855469 0.03203125 9.98960938 -0.2734375 10.91796875 C-0.63308594 11.94857422 -0.63308594 11.94857422 -1 13 C-1.66 13 -2.32 13 -3 13 C-2.52060632 8.28596212 -2.03165952 4.33420699 0 0 Z " fill="#6A696A" transform="translate(560,90)"/>
<path d="M0 0 C2.62187494 1.04874998 3.79371361 1.64931313 5.25 4.125 C5.4975 4.74375 5.745 5.3625 6 6 C4.35 6.33 2.7 6.66 1 7 C1 6.01 1 5.02 1 4 C0.34 4 -0.32 4 -1 4 C-0.67 2.68 -0.34 1.36 0 0 Z " fill="#514340" transform="translate(163,166)"/>
<path d="M0 0 C0.33 0 0.66 0 1 0 C1.77112541 4.72314313 2.09764874 9.21521178 2 14 C0.35 13.67 -1.3 13.34 -3 13 C-2.01 12.67 -1.02 12.34 0 12 C0 8.04 0 4.08 0 0 Z " fill="#CDDBAD" transform="translate(164,152)"/>
<path d="M0 0 C5.78461538 3.44615385 5.78461538 3.44615385 6.875 6.25 C6.936875 7.11625 6.936875 7.11625 7 8 C5.35 8 3.7 8 2 8 C1.34 5.36 0.68 2.72 0 0 Z " fill="#192C41" transform="translate(274,278)"/>
<path d="M0 0 C1.9375 0.6875 1.9375 0.6875 2.9375 2.6875 C1.6175 2.6875 0.2975 2.6875 -1.0625 2.6875 C-1.0625 4.3375 -1.0625 5.9875 -1.0625 7.6875 C-1.7225 7.6875 -2.3825 7.6875 -3.0625 7.6875 C-3.3925 5.3775 -3.7225 3.0675 -4.0625 0.6875 C-2.0625 -0.3125 -2.0625 -0.3125 0 0 Z " fill="#2C2E33" transform="translate(168.0625,172.3125)"/>
<path d="M0 0 C5.94 1.485 5.94 1.485 12 3 C12 3.33 12 3.66 12 4 C7.31034294 5.11658501 4.46236469 4.80619523 0 3 C0 2.01 0 1.02 0 0 Z " fill="#545253" transform="translate(569,217)"/>
<path d="M0 0 C2.0859375 3.6171875 2.0859375 3.6171875 1.3125 7.0625 C0.11838896 9.73503424 -0.76905723 11.17468319 -3 13 C-3 9.41936487 -2.65592475 7.52512014 -1.5 4.25 C-1.2215625 3.45078125 -0.943125 2.6515625 -0.65625 1.828125 C-0.4396875 1.22484375 -0.223125 0.6215625 0 0 Z " fill="#515050" transform="translate(650,210)"/>
<path d="M0 0 C2.1875 0.0625 2.1875 0.0625 5 1 C6.93157957 3.1717219 8.48201687 5.52601047 10 8 C4.98886765 6.5682479 3.05530451 4.01554307 0 0 Z " fill="#DF664D" transform="translate(64,69)"/>
<path d="M0 0 C6.625 -0.25 6.625 -0.25 10 2 C10 2.66 10 3.32 10 4 C6.7 3.01 3.4 2.02 0 1 C0 0.67 0 0.34 0 0 Z " fill="#424040" transform="translate(576,221)"/>
<path d="M0 0 C2 1.3125 2 1.3125 4 3 C4 3.99 4 4.98 4 6 C2.35 6 0.7 6 -1 6 C-1.042721 4.33388095 -1.04063832 2.66617115 -1 1 C-0.67 0.67 -0.34 0.34 0 0 Z " fill="#2E2D2E" transform="translate(557,212)"/>
<path d="M0 0 C-0.763125 0.28875 -1.52625 0.5775 -2.3125 0.875 C-5.15029308 1.96269013 -5.15029308 1.96269013 -8 4 C-10.1875 3.625 -10.1875 3.625 -12 3 C-4.82142857 -1.78571429 -4.82142857 -1.78571429 0 0 Z " fill="#565556" transform="translate(611,54)"/>
<path d="M0 0 C1.14926266 0.95421808 2.29430541 1.91352045 3.4375 2.875 C4.07558594 3.40867187 4.71367187 3.94234375 5.37109375 4.4921875 C7 6 7 6 8 8 C4.21479387 7.45925627 2.40822445 5.92427254 0 3 C0 2.01 0 1.02 0 0 Z " fill="#1B2636" transform="translate(266,270)"/>
<path d="M0 0 C1.43655854 -0.08131463 2.8744483 -0.13933559 4.3125 -0.1875 C5.51326172 -0.23970703 5.51326172 -0.23970703 6.73828125 -0.29296875 C9.47851584 0.06198392 10.29171079 0.89366282 12 3 C3.96428571 2.19642857 3.96428571 2.19642857 0 0 Z " fill="#CDCCCD" transform="translate(595,224)"/>
<path d="M0 0 C0.66 0 1.32 0 2 0 C2 0.66 2 1.32 2 2 C2.99 2.33 3.98 2.66 5 3 C4.67 4.32 4.34 5.64 4 7 C2.35 5.02 0.7 3.04 -1 1 C-0.67 0.67 -0.34 0.34 0 0 Z " fill="#9FC68E" transform="translate(216,217)"/>
<path d="M0 0 C2.00720923 0.28674418 4.0085944 0.61866701 6 1 C5.67 1.99 5.34 2.98 5 4 C2.13275314 3.42655063 1.1385485 3.1385485 -1 1 C-0.67 0.67 -0.34 0.34 0 0 Z " fill="#494849" transform="translate(600,177)"/>
<path d="M0 0 C0.33 0 0.66 0 1 0 C1 2.31 1 4.62 1 7 C-1.4375 6.625 -1.4375 6.625 -4 6 C-4.33 5.34 -4.66 4.68 -5 4 C-3.68 4.33 -2.36 4.66 -1 5 C-0.67 3.35 -0.34 1.7 0 0 Z " fill="#F4ECDC" transform="translate(163,157)"/>
<path d="M0 0 C3.465 1.485 3.465 1.485 7 3 C6.34 3.66 5.68 4.32 5 5 C2.375 4.625 2.375 4.625 0 4 C0 2.68 0 1.36 0 0 Z " fill="#535252" transform="translate(644,135)"/>
<path d="M0 0 C1.17219543 0.78345715 2.33763668 1.57702836 3.5 2.375 C4.47453125 3.03628906 4.47453125 3.03628906 5.46875 3.7109375 C5.9740625 4.13632812 6.479375 4.56171875 7 5 C7 5.66 7 6.32 7 7 C4.20171644 6.61402985 3.1794116 6.19863427 1.25 4.0625 C0 2 0 2 0 0 Z " fill="#E26E55" transform="translate(42,45)"/>
</svg>
